<svg xmlns="http://www.w3.org/2000/svg" viewBox="0 0 23.763 28" id="paypal-logo"><path d="m0 24.235 3.592-23.11S3.808 0 4.76 0h9.521s3.606.13 5.236 1.471c1.63 1.342 2.207 3.159 1.947 5.15-.26 1.991-1.125 5.453-3.549 7.054s-4.387 1.864-6.751 1.947c-2.445.087-3.535-.612-3.852 1.601-.361 2.524-1.212 7.703-1.212 7.703H.604c-.503.001-.604-.691-.604-.691z" opacity=".8"></path><path d="M8.9 7.131 6.102 25.014l-.346 2.294s-.13.692.563.692h4.804s.678.014.866-.866.952-6.015.952-6.015.188-.736.952-.822c0 0 4.4.202 6.621-1.601 2.222-1.803 3.145-4.746 3.246-7.27s-1.572-5.15-6.318-5.15h-7.011c-1.464 0-1.531.855-1.531.855z" opacity=".5"></path></svg>